<?xml version="1.0" standalone="no"?>
<!DOCTYPE svg PUBLIC "-//W3C//DTD SVG 20010904//EN"
 "http://www.w3.org/TR/2001/REC-SVG-20010904/DTD/svg10.dtd">
<svg version="1.0" xmlns="http://www.w3.org/2000/svg"
 width="512.000000pt" height="512.000000pt" viewBox="0 0 512.000000 512.000000"
 preserveAspectRatio="xMidYMid meet">
<metadata>
Created by potrace 1.14, written by Peter Selinger 2001-2017
</metadata>
<g transform="translate(0.000000,512.000000) scale(0.100000,-0.100000)"
fill="#000000" stroke="none">
<path d="M606 5095 c-117 -30 -225 -106 -296 -210 -100 -146 -105 -350 -13
-575 44 -108 72 -157 204 -357 164 -249 240 -421 269 -608 14 -89 15 -357 1
-510 -11 -129 -11 -592 0 -715 64 -711 292 -1265 677 -1647 202 -200 403 -321
687 -412 148 -48 240 -61 425 -61 185 0 277 13 425 61 284 91 485 212 687 412
385 382 613 936 677 1647 11 123 11 586 0 715 -14 153 -13 421 1 510 29 187
105 359 269 608 132 200 160 249 204 357 92 225 87 429 -13 575 -154 223 -433
286 -666 150 -175 -102 -299 -367 -329 -700 -25 -280 -76 -498 -153 -650 -63
-125 -169 -260 -362 -460 -53 -55 -117 -122 -142 -150 -24 -27 -57 -63 -72
-80 -14 -16 -52 -63 -84 -103 -52 -68 -59 -73 -87 -68 -16 3 -68 13 -115 22
-57 11 -136 17 -240 17 -104 0 -183 -6 -240 -17 -47 -9 -98 -19 -115 -22 -28
-5 -35 0 -87 68 -32 40 -70 87 -84 103 -15 17 -48 53 -72 80 -25 28 -89 95
-142 150 -193 200 -299 335 -362 460 -77 152 -128 370 -153 650 -30 333 -154
598 -329 700 -110 64 -257 88 -370 60z m197 -169 c99 -23 174 -91 234 -211 53
-105 86 -243 107 -460 4 -33 13 -107 22 -165 8 -58 16 -113 17 -124 2 -15 -16
-25 -93 -53 -52 -19 -137 -50 -188 -69 -51 -19 -98 -34 -105 -34 -7 0 -21 17
-32 38 -10 20 -70 115 -132 209 -182 276 -240 422 -231 581 5 79 26 133 77
194 45 55 155 106 231 107 19 0 61 -5 93 -13z m3687 -2 c56 -17 122 -57 151
-92 51 -61 72 -115 77 -194 9 -159 -49 -305 -231 -581 -62 -94 -122 -189 -132
-209 -11 -21 -25 -38 -32 -38 -7 0 -54 15 -105 34 -51 19 -136 50 -188 69 -77
28 -95 38 -93 53 1 11 9 66 17 124 9 58 18 132 22 165 28 284 79 449 171 561
86 105 216 146 343 108z m-2976 -1616 c26 -32 113 -126 221 -238 144 -151 268
-299 262 -314 -3 -7 -43 -32 -89 -56 -327 -167 -593 -478 -707 -826 -53 -164
-65 -243 -66 -436 0 -99 -4 -170 -8 -162 -38 67 -123 383 -151 559 -16 102
-25 167 -30 223 -3 34 -8 88 -12 120 -12 126 -4 664 12 745 2 10 4 62 5 117
l1 99 77 27 c42 15 157 58 256 95 99 37 187 68 195 68 9 1 24 -9 34 -21z
m2317 -46 c101 -38 218 -81 260 -96 l77 -27 1 -99 c1 -55 3 -107 5 -117 16
-81 24 -619 12 -745 -4 -32 -9 -86 -12 -120 -5 -56 -14 -121 -30 -223 -28
-176 -113 -492 -151 -559 -4 -8 -8 63 -8 162 -1 193 -13 272 -66 436 -114 348
-380 659 -707 826 -46 24 -86 49 -89 56 -6 15 118 163 262 314 108 112 195
206 221 238 10 12 23 22 29 22 6 0 94 -31 196 -68z m-2252 -1757 c37 -19 41
-31 52 -150 9 -115 27 -187 69 -289 67 -162 218 -340 364 -431 121 -75 289
-128 447 -141 62 -5 87 -12 105 -28 35 -32 39 -66 12 -106 -22 -33 -28 -35
-83 -38 -129 -7 -384 58 -515 130 -140 77 -310 235 -394 365 -119 186 -186
393 -186 580 0 67 2 73 31 97 35 30 58 32 98 11z"/>
</g>
</svg>
